<?xml version="1.0" standalone="no"?>
<!DOCTYPE svg PUBLIC "-//W3C//DTD SVG 20010904//EN"
 "http://www.w3.org/TR/2001/REC-SVG-20010904/DTD/svg10.dtd">
<svg version="1.0" xmlns="http://www.w3.org/2000/svg"
 width="16.000000pt" height="16.000000pt" viewBox="0 0 16.000000 16.000000"
 preserveAspectRatio="xMidYMid meet">
<metadata>
Created by potrace 1.11, written by Peter Selinger 2001-2013
</metadata>
<g transform="translate(0.000000,16.000000) scale(0.003837,-0.003837)"
fill="#000000" stroke="none">
<path d="M928 3065 c-2 -1 -28 -5 -58 -8 -223 -24 -423 -122 -589 -288 -44
-45 -171 -217 -172 -234 0 -2 -11 -29 -24 -59 -20 -46 -43 -116 -61 -191 -9
-41 -18 -132 -18 -195 1 -271 106 -520 298 -704 58 -55 150 -126 165 -126 5 0
11 -4 13 -8 9 -22 206 -102 290 -118 13 -2 34 -6 48 -10 45 -10 246 -12 296
-2 27 5 58 11 69 12 11 2 40 9 65 16 25 7 45 11 45 10 0 0 35 15 77 34 137 63
214 122 417 322 l195 191 -138 138 -137 138 -35 -34 c-19 -19 -106 -104 -193
-189 -152 -150 -197 -183 -296 -221 -104 -40 -259 -46 -365 -14 -192 58 -354
224 -404 417 -9 34 -13 93 -11 163 3 120 20 183 74 279 41 72 178 206 210 206
6 0 11 3 11 8 0 10 72 38 144 57 42 10 92 14 165 11 141 -5 201 -27 339 -121
8 -5 282 -278 608 -605 327 -327 620 -614 652 -638 108 -80 288 -157 416 -178
128 -22 326 -9 452 29 284 85 548 339 634 612 7 22 17 51 23 65 5 14 11 34 12
45 1 11 6 45 10 75 16 114 8 276 -17 365 -30 110 -96 269 -117 285 -4 3 -18
23 -31 45 -26 42 -28 44 -104 124 -152 158 -363 263 -580 288 -74 8 -200 7
-241 -2 -16 -4 -37 -7 -45 -7 -8 0 -46 -8 -85 -18 -150 -40 -314 -133 -425
-242 l-28 -28 -76 77 c-57 58 -76 72 -77 57 -6 -131 -2 -564 6 -565 15 -1 548
-1 564 0 8 1 -21 36 -63 78 l-77 77 38 36 c99 93 245 150 384 151 51 0 67 -1
149 -16 35 -6 171 -67 198 -89 55 -44 138 -139 167 -190 71 -128 93 -294 57
-436 -36 -146 -163 -305 -293 -368 -105 -51 -163 -65 -274 -65 -116 0 -219 29
-310 87 -31 20 -305 286 -656 637 -515 513 -693 682 -719 684 -3 0 -16 8 -30
17 -26 18 -143 71 -180 83 -36 11 -99 28 -115 30 -92 15 -239 27 -247 20z"/>
<path d="M3141 2502 c-47 -23 -72 -61 -78 -113 -8 -81 47 -147 128 -156 83 -8
149 48 156 134 10 112 -105 187 -206 135z"/>
<path d="M951 2452 c-66 -11 -101 -62 -105 -155 -2 -34 -4 -64 -5 -67 -1 -3
-28 -6 -61 -6 -34 -1 -73 -7 -89 -14 -43 -18 -72 -64 -74 -118 -3 -102 51
-152 166 -152 l65 0 -1 -47 c0 -97 2 -104 42 -144 35 -35 44 -39 90 -39 103 0
143 41 149 152 l5 78 59 0 c113 0 168 48 168 147 0 47 -4 56 -38 93 -40 41
-44 42 -139 43 l-53 0 0 66 c0 120 -68 182 -179 163z"/>
<path d="M2848 2219 c-48 -25 -72 -64 -74 -124 -6 -163 225 -204 277 -48 40
121 -89 231 -203 172z"/>
<path d="M3435 2225 c-84 -35 -114 -129 -67 -209 56 -96 206 -86 252 16 52
118 -68 244 -185 193z"/>
<path d="M3142 1929 c-56 -28 -81 -70 -79 -133 3 -61 26 -98 79 -124 100 -51
218 32 206 143 -12 104 -113 160 -206 114z"/>
</g>
</svg>
